# xmcd
#
# Track frame offsets:
#	150
#	42094
#	74683
#	112663
#	152045
#	181953
#	216874
#	255479
#
# Disc length: 3899 seconds
#
# Revision: 2
# Processed by: cddbd v1.5.2PL0 Copyright (c) Steve Scherf et al.
# Submitted via: EasyCDDAExtractor 11.5.3.1
#
DISCID=670f3908
DTITLE=Various Artist - Trance Only
DYEAR=1998
DGENRE=Trance
TTITLE0=Control Z - Dreaming of You (Quietman Remix)
TTITLE1=Orbit 90 - Diamond Back
TTITLE2=Destiny Angel - You Take Me Higher
TTITLE3=Floorplay - State of Mind (Utah Saints Remix)
TTITLE4=Push - Firewall
TTITLE5=Floorplay - Redemption (The Light Remix)
TTITLE6=Blue World - Flame Thrower
TTITLE7=Disco Volante - Contact
EXTD=
EXTT0=
EXTT1=
EXTT2=
EXTT3=
EXTT4=
EXTT5=
EXTT6=
EXTT7=
PLAYORDER=
